# xmcd
#
# Track frame offsets:
# 150
# 17498
# 33747
# 54531
# 70364
# 89960
# 103286
# 122845
# 139351
# 155143
# 195759
# 211806
# 227761
# 248591
# 264523
# 277931
# 295777
# 337418
#
# Disc length: 4712 seconds
#
#
# Revision: 0
# Processed by: cddbd v1.5.1PL0 Copyright (c) Steve Scherf et al.
# Submitted via: FreeRIP 2.942 
#
DISCID=18126612
DTITLE=Nolly - Nolly
DYEAR=2000
DGENRE=Country
TTITLE0=Nolly
TTITLE1=Nolly
TTITLE2=Nolly
TTITLE3=Nolly
TTITLE4=Nolly
TTITLE5=Nolly
TTITLE6=Nolly
TTITLE7=Nolly
TTITLE8=Nolly
TTITLE9=Nolly
TTITLE10=Nolly
TTITLE11=Nolly
TTITLE12=Nolly
TTITLE13=Nolly
TTITLE14=Nolly
TTITLE15=Nolly
TTITLE16=Nolly
TTITLE17=Nolly
EXTD=
EXTT0=
EXTT1=
EXTT2=
EXTT3=
EXTT4=
EXTT5=
EXTT6=
EXTT7=
EXTT8=
EXTT9=
EXTT10=
EXTT11=
EXTT12=
EXTT13=
EXTT14=
EXTT15=
EXTT16=
EXTT17=
PLAYORDER=
